<mxfile host="app.diagrams.net" agent="Mozilla/5.0 (Windows NT 10.0; Win64; x64) AppleWebKit/537.36 (KHTML, like Gecko) Chrome/129.0.0.0 Safari/537.36" version="24.7.17">
  <diagram id="C5RBs43oDa-KdzZeNtuy" name="Page-1">
    <mxGraphModel dx="2049" dy="2283" grid="1" gridSize="10" guides="1" tooltips="1" connect="1" arrows="1" fold="1" page="1" pageScale="1" pageWidth="827" pageHeight="1169" math="0" shadow="0">
      <root>
        <mxCell id="WIyWlLk6GJQsqaUBKTNV-0" />
        <mxCell id="WIyWlLk6GJQsqaUBKTNV-1" parent="WIyWlLk6GJQsqaUBKTNV-0" />
        <mxCell id="cJ3xzSQPgpJ4gWsIiwvy-24" value="" style="rounded=0;whiteSpace=wrap;html=1;" vertex="1" parent="WIyWlLk6GJQsqaUBKTNV-1">
          <mxGeometry x="890" y="-400" width="250" height="540" as="geometry" />
        </mxCell>
        <mxCell id="WIyWlLk6GJQsqaUBKTNV-2" value="" style="rounded=0;html=1;jettySize=auto;orthogonalLoop=1;fontSize=11;endArrow=block;endFill=0;endSize=8;strokeWidth=1;shadow=0;labelBackgroundColor=none;edgeStyle=orthogonalEdgeStyle;entryX=0.5;entryY=0;entryDx=0;entryDy=0;" parent="WIyWlLk6GJQsqaUBKTNV-1" source="WIyWlLk6GJQsqaUBKTNV-3" target="cJ3xzSQPgpJ4gWsIiwvy-58" edge="1">
          <mxGeometry relative="1" as="geometry" />
        </mxCell>
        <mxCell id="WIyWlLk6GJQsqaUBKTNV-3" value="[school].tentative_timesheet" style="rounded=1;whiteSpace=wrap;html=1;fontSize=12;glass=0;strokeWidth=1;shadow=0;" parent="WIyWlLk6GJQsqaUBKTNV-1" vertex="1">
          <mxGeometry x="80" y="-320" width="160" height="40" as="geometry" />
        </mxCell>
        <mxCell id="cJ3xzSQPgpJ4gWsIiwvy-79" style="edgeStyle=orthogonalEdgeStyle;rounded=0;orthogonalLoop=1;jettySize=auto;html=1;exitX=0.5;exitY=1;exitDx=0;exitDy=0;entryX=0.5;entryY=0;entryDx=0;entryDy=0;endArrow=block;endFill=0;" edge="1" parent="WIyWlLk6GJQsqaUBKTNV-1" source="WIyWlLk6GJQsqaUBKTNV-7" target="cJ3xzSQPgpJ4gWsIiwvy-70">
          <mxGeometry relative="1" as="geometry" />
        </mxCell>
        <mxCell id="WIyWlLk6GJQsqaUBKTNV-7" value="event details" style="rounded=1;whiteSpace=wrap;html=1;fontSize=12;glass=0;strokeWidth=1;shadow=0;" parent="WIyWlLk6GJQsqaUBKTNV-1" vertex="1">
          <mxGeometry x="100" y="-20" width="120" height="40" as="geometry" />
        </mxCell>
        <mxCell id="cJ3xzSQPgpJ4gWsIiwvy-2" value="tables (send to SAP)" style="swimlane;fontStyle=0;childLayout=stackLayout;horizontal=1;startSize=30;horizontalStack=0;resizeParent=1;resizeParentMax=0;resizeLast=0;collapsible=1;marginBottom=0;whiteSpace=wrap;html=1;" vertex="1" parent="WIyWlLk6GJQsqaUBKTNV-1">
          <mxGeometry x="900" y="-400" width="230" height="120" as="geometry" />
        </mxCell>
        <mxCell id="cJ3xzSQPgpJ4gWsIiwvy-3" value="[school].tentative_timesheet" style="text;strokeColor=none;fillColor=none;align=left;verticalAlign=middle;spacingLeft=4;spacingRight=4;overflow=hidden;points=[[0,0.5],[1,0.5]];portConstraint=eastwest;rotatable=0;whiteSpace=wrap;html=1;" vertex="1" parent="cJ3xzSQPgpJ4gWsIiwvy-2">
          <mxGeometry y="30" width="230" height="30" as="geometry" />
        </mxCell>
        <mxCell id="cJ3xzSQPgpJ4gWsIiwvy-23" value="[school].draft_timetable" style="text;strokeColor=none;fillColor=none;align=left;verticalAlign=middle;spacingLeft=4;spacingRight=4;overflow=hidden;points=[[0,0.5],[1,0.5]];portConstraint=eastwest;rotatable=0;whiteSpace=wrap;html=1;" vertex="1" parent="cJ3xzSQPgpJ4gWsIiwvy-2">
          <mxGeometry y="60" width="230" height="30" as="geometry" />
        </mxCell>
        <mxCell id="cJ3xzSQPgpJ4gWsIiwvy-21" value="[school].timsheet" style="text;strokeColor=none;fillColor=none;align=left;verticalAlign=middle;spacingLeft=4;spacingRight=4;overflow=hidden;points=[[0,0.5],[1,0.5]];portConstraint=eastwest;rotatable=0;whiteSpace=wrap;html=1;" vertex="1" parent="cJ3xzSQPgpJ4gWsIiwvy-2">
          <mxGeometry y="90" width="230" height="30" as="geometry" />
        </mxCell>
        <mxCell id="cJ3xzSQPgpJ4gWsIiwvy-44" value="" style="endArrow=classic;html=1;rounded=0;" edge="1" parent="WIyWlLk6GJQsqaUBKTNV-1">
          <mxGeometry relative="1" as="geometry">
            <mxPoint x="60" y="-260" as="sourcePoint" />
            <mxPoint x="160" y="-260" as="targetPoint" />
          </mxGeometry>
        </mxCell>
        <mxCell id="cJ3xzSQPgpJ4gWsIiwvy-45" value="program" style="edgeLabel;resizable=0;html=1;;align=center;verticalAlign=middle;" connectable="0" vertex="1" parent="cJ3xzSQPgpJ4gWsIiwvy-44">
          <mxGeometry relative="1" as="geometry" />
        </mxCell>
        <mxCell id="cJ3xzSQPgpJ4gWsIiwvy-48" value="" style="endArrow=classic;html=1;rounded=0;" edge="1" parent="WIyWlLk6GJQsqaUBKTNV-1">
          <mxGeometry relative="1" as="geometry">
            <mxPoint x="60" y="-245.5" as="sourcePoint" />
            <mxPoint x="160" y="-245.5" as="targetPoint" />
          </mxGeometry>
        </mxCell>
        <mxCell id="cJ3xzSQPgpJ4gWsIiwvy-49" value="acad_session" style="edgeLabel;resizable=0;html=1;;align=center;verticalAlign=middle;" connectable="0" vertex="1" parent="cJ3xzSQPgpJ4gWsIiwvy-48">
          <mxGeometry relative="1" as="geometry" />
        </mxCell>
        <mxCell id="cJ3xzSQPgpJ4gWsIiwvy-50" value="" style="endArrow=classic;html=1;rounded=0;" edge="1" parent="WIyWlLk6GJQsqaUBKTNV-1">
          <mxGeometry relative="1" as="geometry">
            <mxPoint x="60" y="-231" as="sourcePoint" />
            <mxPoint x="160" y="-231" as="targetPoint" />
          </mxGeometry>
        </mxCell>
        <mxCell id="cJ3xzSQPgpJ4gWsIiwvy-51" value="timetable_lid" style="edgeLabel;resizable=0;html=1;;align=center;verticalAlign=middle;" connectable="0" vertex="1" parent="cJ3xzSQPgpJ4gWsIiwvy-50">
          <mxGeometry relative="1" as="geometry" />
        </mxCell>
        <mxCell id="cJ3xzSQPgpJ4gWsIiwvy-52" value="" style="endArrow=classic;html=1;rounded=0;" edge="1" parent="WIyWlLk6GJQsqaUBKTNV-1">
          <mxGeometry relative="1" as="geometry">
            <mxPoint x="60" y="-215.5" as="sourcePoint" />
            <mxPoint x="160" y="-215.5" as="targetPoint" />
          </mxGeometry>
        </mxCell>
        <mxCell id="cJ3xzSQPgpJ4gWsIiwvy-53" value="sap_flag = N" style="edgeLabel;resizable=0;html=1;;align=center;verticalAlign=middle;" connectable="0" vertex="1" parent="cJ3xzSQPgpJ4gWsIiwvy-52">
          <mxGeometry relative="1" as="geometry">
            <mxPoint y="1" as="offset" />
          </mxGeometry>
        </mxCell>
        <mxCell id="cJ3xzSQPgpJ4gWsIiwvy-55" value="" style="endArrow=classic;html=1;rounded=0;" edge="1" parent="WIyWlLk6GJQsqaUBKTNV-1">
          <mxGeometry relative="1" as="geometry">
            <mxPoint x="60" y="-200" as="sourcePoint" />
            <mxPoint x="160" y="-200" as="targetPoint" />
          </mxGeometry>
        </mxCell>
        <mxCell id="cJ3xzSQPgpJ4gWsIiwvy-56" value="active = 1" style="edgeLabel;resizable=0;html=1;;align=center;verticalAlign=middle;" connectable="0" vertex="1" parent="cJ3xzSQPgpJ4gWsIiwvy-55">
          <mxGeometry relative="1" as="geometry" />
        </mxCell>
        <mxCell id="cJ3xzSQPgpJ4gWsIiwvy-59" value="" style="edgeStyle=orthogonalEdgeStyle;rounded=0;orthogonalLoop=1;jettySize=auto;html=1;endArrow=block;endFill=0;" edge="1" parent="WIyWlLk6GJQsqaUBKTNV-1" source="cJ3xzSQPgpJ4gWsIiwvy-58">
          <mxGeometry relative="1" as="geometry">
            <mxPoint x="160" y="-20" as="targetPoint" />
          </mxGeometry>
        </mxCell>
        <mxCell id="cJ3xzSQPgpJ4gWsIiwvy-58" value="[school].draft_timetable" style="rounded=1;whiteSpace=wrap;html=1;fontSize=12;glass=0;strokeWidth=1;shadow=0;" vertex="1" parent="WIyWlLk6GJQsqaUBKTNV-1">
          <mxGeometry x="90" y="-170" width="140" height="40" as="geometry" />
        </mxCell>
        <mxCell id="cJ3xzSQPgpJ4gWsIiwvy-60" value="" style="endArrow=classic;html=1;rounded=0;" edge="1" parent="WIyWlLk6GJQsqaUBKTNV-1">
          <mxGeometry relative="1" as="geometry">
            <mxPoint x="60" y="-120" as="sourcePoint" />
            <mxPoint x="160" y="-120" as="targetPoint" />
          </mxGeometry>
        </mxCell>
        <mxCell id="cJ3xzSQPgpJ4gWsIiwvy-61" value="program" style="edgeLabel;resizable=0;html=1;;align=center;verticalAlign=middle;" connectable="0" vertex="1" parent="cJ3xzSQPgpJ4gWsIiwvy-60">
          <mxGeometry relative="1" as="geometry" />
        </mxCell>
        <mxCell id="cJ3xzSQPgpJ4gWsIiwvy-62" value="" style="endArrow=classic;html=1;rounded=0;" edge="1" parent="WIyWlLk6GJQsqaUBKTNV-1">
          <mxGeometry relative="1" as="geometry">
            <mxPoint x="60" y="-105.5" as="sourcePoint" />
            <mxPoint x="160" y="-105.5" as="targetPoint" />
          </mxGeometry>
        </mxCell>
        <mxCell id="cJ3xzSQPgpJ4gWsIiwvy-63" value="acad_session" style="edgeLabel;resizable=0;html=1;;align=center;verticalAlign=middle;" connectable="0" vertex="1" parent="cJ3xzSQPgpJ4gWsIiwvy-62">
          <mxGeometry relative="1" as="geometry" />
        </mxCell>
        <mxCell id="cJ3xzSQPgpJ4gWsIiwvy-64" value="" style="endArrow=classic;html=1;rounded=0;" edge="1" parent="WIyWlLk6GJQsqaUBKTNV-1">
          <mxGeometry relative="1" as="geometry">
            <mxPoint x="60" y="-91" as="sourcePoint" />
            <mxPoint x="160" y="-91" as="targetPoint" />
          </mxGeometry>
        </mxCell>
        <mxCell id="cJ3xzSQPgpJ4gWsIiwvy-65" value="timetable_lid" style="edgeLabel;resizable=0;html=1;;align=center;verticalAlign=middle;" connectable="0" vertex="1" parent="cJ3xzSQPgpJ4gWsIiwvy-64">
          <mxGeometry relative="1" as="geometry" />
        </mxCell>
        <mxCell id="cJ3xzSQPgpJ4gWsIiwvy-66" value="" style="endArrow=classic;html=1;rounded=0;" edge="1" parent="WIyWlLk6GJQsqaUBKTNV-1">
          <mxGeometry relative="1" as="geometry">
            <mxPoint x="60" y="-75.5" as="sourcePoint" />
            <mxPoint x="160" y="-75.5" as="targetPoint" />
          </mxGeometry>
        </mxCell>
        <mxCell id="cJ3xzSQPgpJ4gWsIiwvy-67" value="sap_flag = N" style="edgeLabel;resizable=0;html=1;;align=center;verticalAlign=middle;" connectable="0" vertex="1" parent="cJ3xzSQPgpJ4gWsIiwvy-66">
          <mxGeometry relative="1" as="geometry">
            <mxPoint y="1" as="offset" />
          </mxGeometry>
        </mxCell>
        <mxCell id="cJ3xzSQPgpJ4gWsIiwvy-68" value="" style="endArrow=classic;html=1;rounded=0;" edge="1" parent="WIyWlLk6GJQsqaUBKTNV-1">
          <mxGeometry relative="1" as="geometry">
            <mxPoint x="60" y="-60" as="sourcePoint" />
            <mxPoint x="160" y="-60" as="targetPoint" />
          </mxGeometry>
        </mxCell>
        <mxCell id="cJ3xzSQPgpJ4gWsIiwvy-69" value="active = 1" style="edgeLabel;resizable=0;html=1;;align=center;verticalAlign=middle;" connectable="0" vertex="1" parent="cJ3xzSQPgpJ4gWsIiwvy-68">
          <mxGeometry relative="1" as="geometry" />
        </mxCell>
        <mxCell id="cJ3xzSQPgpJ4gWsIiwvy-80" style="edgeStyle=orthogonalEdgeStyle;rounded=0;orthogonalLoop=1;jettySize=auto;html=1;exitX=0.5;exitY=1;exitDx=0;exitDy=0;entryX=0.5;entryY=0;entryDx=0;entryDy=0;endArrow=block;endFill=0;" edge="1" parent="WIyWlLk6GJQsqaUBKTNV-1" source="cJ3xzSQPgpJ4gWsIiwvy-70" target="cJ3xzSQPgpJ4gWsIiwvy-71">
          <mxGeometry relative="1" as="geometry" />
        </mxCell>
        <mxCell id="cJ3xzSQPgpJ4gWsIiwvy-70" value="event schedules" style="rounded=1;whiteSpace=wrap;html=1;fontSize=12;glass=0;strokeWidth=1;shadow=0;" vertex="1" parent="WIyWlLk6GJQsqaUBKTNV-1">
          <mxGeometry x="100" y="50" width="120" height="40" as="geometry" />
        </mxCell>
        <mxCell id="cJ3xzSQPgpJ4gWsIiwvy-81" style="edgeStyle=orthogonalEdgeStyle;rounded=0;orthogonalLoop=1;jettySize=auto;html=1;exitX=0.5;exitY=1;exitDx=0;exitDy=0;entryX=0.5;entryY=0;entryDx=0;entryDy=0;endArrow=block;endFill=0;" edge="1" parent="WIyWlLk6GJQsqaUBKTNV-1" source="cJ3xzSQPgpJ4gWsIiwvy-71" target="cJ3xzSQPgpJ4gWsIiwvy-72">
          <mxGeometry relative="1" as="geometry" />
        </mxCell>
        <mxCell id="cJ3xzSQPgpJ4gWsIiwvy-71" value="event headers" style="rounded=1;whiteSpace=wrap;html=1;fontSize=12;glass=0;strokeWidth=1;shadow=0;" vertex="1" parent="WIyWlLk6GJQsqaUBKTNV-1">
          <mxGeometry x="100" y="110" width="120" height="40" as="geometry" />
        </mxCell>
        <mxCell id="cJ3xzSQPgpJ4gWsIiwvy-83" style="edgeStyle=orthogonalEdgeStyle;rounded=0;orthogonalLoop=1;jettySize=auto;html=1;exitX=0.5;exitY=1;exitDx=0;exitDy=0;entryX=0.5;entryY=0;entryDx=0;entryDy=0;endArrow=block;endFill=0;" edge="1" parent="WIyWlLk6GJQsqaUBKTNV-1" source="cJ3xzSQPgpJ4gWsIiwvy-72">
          <mxGeometry relative="1" as="geometry">
            <mxPoint x="160" y="240" as="targetPoint" />
          </mxGeometry>
        </mxCell>
        <mxCell id="cJ3xzSQPgpJ4gWsIiwvy-72" value="SEND TO SAP" style="rounded=0;whiteSpace=wrap;html=1;fontSize=12;glass=0;strokeWidth=1;shadow=0;fillColor=#fff2cc;strokeColor=#d6b656;" vertex="1" parent="WIyWlLk6GJQsqaUBKTNV-1">
          <mxGeometry x="100" y="170" width="120" height="40" as="geometry" />
        </mxCell>
        <mxCell id="cJ3xzSQPgpJ4gWsIiwvy-86" style="edgeStyle=orthogonalEdgeStyle;rounded=0;orthogonalLoop=1;jettySize=auto;html=1;endArrow=block;endFill=0;" edge="1" parent="WIyWlLk6GJQsqaUBKTNV-1" source="cJ3xzSQPgpJ4gWsIiwvy-84">
          <mxGeometry relative="1" as="geometry">
            <mxPoint x="160" y="380" as="targetPoint" />
          </mxGeometry>
        </mxCell>
        <mxCell id="cJ3xzSQPgpJ4gWsIiwvy-102" style="edgeStyle=orthogonalEdgeStyle;rounded=0;orthogonalLoop=1;jettySize=auto;html=1;entryX=0.5;entryY=1;entryDx=0;entryDy=0;" edge="1" parent="WIyWlLk6GJQsqaUBKTNV-1" source="cJ3xzSQPgpJ4gWsIiwvy-84" target="cJ3xzSQPgpJ4gWsIiwvy-90">
          <mxGeometry relative="1" as="geometry" />
        </mxCell>
        <mxCell id="cJ3xzSQPgpJ4gWsIiwvy-84" value="Response" style="html=1;whiteSpace=wrap;aspect=fixed;shape=isoRectangle;" vertex="1" parent="WIyWlLk6GJQsqaUBKTNV-1">
          <mxGeometry x="85" y="240" width="150" height="90" as="geometry" />
        </mxCell>
        <mxCell id="cJ3xzSQPgpJ4gWsIiwvy-87" value="1- Move all success events to [school].timesheet&lt;div&gt;2- update unx_lid in [school].timesheet&lt;/div&gt;&lt;div&gt;3- Update [school].draft_timetable sap_flag = &#39;S&#39;&lt;/div&gt;&lt;div&gt;4- Update [school].tentative_timesheet sap_flag = &#39;S&#39;&lt;/div&gt;" style="rounded=0;whiteSpace=wrap;html=1;" vertex="1" parent="WIyWlLk6GJQsqaUBKTNV-1">
          <mxGeometry x="15" y="380" width="290" height="110" as="geometry" />
        </mxCell>
        <mxCell id="cJ3xzSQPgpJ4gWsIiwvy-88" value="SUCCESS" style="text;strokeColor=#82b366;fillColor=#d5e8d4;align=left;verticalAlign=middle;spacingLeft=4;spacingRight=4;overflow=hidden;points=[[0,0.5],[1,0.5]];portConstraint=eastwest;rotatable=0;whiteSpace=wrap;html=1;" vertex="1" parent="WIyWlLk6GJQsqaUBKTNV-1">
          <mxGeometry x="165" y="330" width="70" height="30" as="geometry" />
        </mxCell>
        <mxCell id="cJ3xzSQPgpJ4gWsIiwvy-89" value="FAIL" style="text;strokeColor=#b85450;fillColor=#f8cecc;align=left;verticalAlign=middle;spacingLeft=4;spacingRight=4;overflow=hidden;points=[[0,0.5],[1,0.5]];portConstraint=eastwest;rotatable=0;whiteSpace=wrap;html=1;" vertex="1" parent="WIyWlLk6GJQsqaUBKTNV-1">
          <mxGeometry x="235" y="250" width="40" height="30" as="geometry" />
        </mxCell>
        <mxCell id="cJ3xzSQPgpJ4gWsIiwvy-92" style="edgeStyle=orthogonalEdgeStyle;rounded=0;orthogonalLoop=1;jettySize=auto;html=1;entryX=1;entryY=0.5;entryDx=0;entryDy=0;" edge="1" parent="WIyWlLk6GJQsqaUBKTNV-1" source="cJ3xzSQPgpJ4gWsIiwvy-90" target="cJ3xzSQPgpJ4gWsIiwvy-58">
          <mxGeometry relative="1" as="geometry">
            <mxPoint x="240" y="-150" as="targetPoint" />
          </mxGeometry>
        </mxCell>
        <mxCell id="cJ3xzSQPgpJ4gWsIiwvy-97" style="edgeStyle=orthogonalEdgeStyle;rounded=0;orthogonalLoop=1;jettySize=auto;html=1;entryX=1;entryY=0.5;entryDx=0;entryDy=0;" edge="1" parent="WIyWlLk6GJQsqaUBKTNV-1" source="cJ3xzSQPgpJ4gWsIiwvy-90" target="WIyWlLk6GJQsqaUBKTNV-3">
          <mxGeometry relative="1" as="geometry" />
        </mxCell>
        <mxCell id="cJ3xzSQPgpJ4gWsIiwvy-90" value="update table&amp;nbsp;&lt;div&gt;with failed events&lt;div&gt;sap_flag = &#39;F&#39;, active = 0&lt;/div&gt;&lt;/div&gt;" style="rounded=0;whiteSpace=wrap;html=1;" vertex="1" parent="WIyWlLk6GJQsqaUBKTNV-1">
          <mxGeometry x="304" y="-180" width="110" height="60" as="geometry" />
        </mxCell>
        <mxCell id="cJ3xzSQPgpJ4gWsIiwvy-99" value="" style="endArrow=classic;html=1;rounded=0;dashed=1;" edge="1" parent="WIyWlLk6GJQsqaUBKTNV-1">
          <mxGeometry width="50" height="50" relative="1" as="geometry">
            <mxPoint x="160" y="-500" as="sourcePoint" />
            <mxPoint x="159.5" y="-340" as="targetPoint" />
          </mxGeometry>
        </mxCell>
        <mxCell id="cJ3xzSQPgpJ4gWsIiwvy-100" value="#timesheet&lt;div&gt;active&lt;br&gt;&amp;nbsp;&lt;span style=&quot;background-color: initial;&quot;&gt;EVENTS&lt;/span&gt;&lt;/div&gt;" style="text;align=center;verticalAlign=middle;spacingLeft=4;spacingRight=4;overflow=hidden;points=[[0,0.5],[1,0.5]];portConstraint=eastwest;rotatable=0;whiteSpace=wrap;html=1;fillColor=#dae8fc;strokeColor=#6c8ebf;" vertex="1" parent="WIyWlLk6GJQsqaUBKTNV-1">
          <mxGeometry x="120" y="-560" width="80" height="60" as="geometry" />
        </mxCell>
        <mxCell id="cJ3xzSQPgpJ4gWsIiwvy-101" value="" style="shape=link;html=1;rounded=0;" edge="1" parent="WIyWlLk6GJQsqaUBKTNV-1">
          <mxGeometry width="100" relative="1" as="geometry">
            <mxPoint y="-480" as="sourcePoint" />
            <mxPoint x="1640" y="-480" as="targetPoint" />
          </mxGeometry>
        </mxCell>
        <mxCell id="cJ3xzSQPgpJ4gWsIiwvy-103" value="" style="rounded=0;whiteSpace=wrap;html=1;" vertex="1" parent="WIyWlLk6GJQsqaUBKTNV-1">
          <mxGeometry x="890" y="-1040" width="250" height="540" as="geometry" />
        </mxCell>
        <mxCell id="cJ3xzSQPgpJ4gWsIiwvy-104" value="tables (event generation)" style="swimlane;fontStyle=0;childLayout=stackLayout;horizontal=1;startSize=30;horizontalStack=0;resizeParent=1;resizeParentMax=0;resizeLast=0;collapsible=1;marginBottom=0;whiteSpace=wrap;html=1;" vertex="1" parent="WIyWlLk6GJQsqaUBKTNV-1">
          <mxGeometry x="900" y="-1040" width="230" height="540" as="geometry" />
        </mxCell>
        <mxCell id="cJ3xzSQPgpJ4gWsIiwvy-105" value="[school].tentative_timesheet" style="text;strokeColor=none;fillColor=none;align=left;verticalAlign=middle;spacingLeft=4;spacingRight=4;overflow=hidden;points=[[0,0.5],[1,0.5]];portConstraint=eastwest;rotatable=0;whiteSpace=wrap;html=1;" vertex="1" parent="cJ3xzSQPgpJ4gWsIiwvy-104">
          <mxGeometry y="30" width="230" height="30" as="geometry" />
        </mxCell>
        <mxCell id="cJ3xzSQPgpJ4gWsIiwvy-106" value="[school].programs" style="text;strokeColor=none;fillColor=none;align=left;verticalAlign=middle;spacingLeft=4;spacingRight=4;overflow=hidden;points=[[0,0.5],[1,0.5]];portConstraint=eastwest;rotatable=0;whiteSpace=wrap;html=1;" vertex="1" parent="cJ3xzSQPgpJ4gWsIiwvy-104">
          <mxGeometry y="60" width="230" height="30" as="geometry" />
        </mxCell>
        <mxCell id="cJ3xzSQPgpJ4gWsIiwvy-107" value="[dbo].acad_session" style="text;strokeColor=none;fillColor=none;align=left;verticalAlign=middle;spacingLeft=4;spacingRight=4;overflow=hidden;points=[[0,0.5],[1,0.5]];portConstraint=eastwest;rotatable=0;whiteSpace=wrap;html=1;" vertex="1" parent="cJ3xzSQPgpJ4gWsIiwvy-104">
          <mxGeometry y="90" width="230" height="30" as="geometry" />
        </mxCell>
        <mxCell id="cJ3xzSQPgpJ4gWsIiwvy-108" value="[school].initial_course_workload" style="text;strokeColor=none;fillColor=none;align=left;verticalAlign=middle;spacingLeft=4;spacingRight=4;overflow=hidden;points=[[0,0.5],[1,0.5]];portConstraint=eastwest;rotatable=0;whiteSpace=wrap;html=1;" vertex="1" parent="cJ3xzSQPgpJ4gWsIiwvy-104">
          <mxGeometry y="120" width="230" height="30" as="geometry" />
        </mxCell>
        <mxCell id="cJ3xzSQPgpJ4gWsIiwvy-109" value="[school].course_work_wsdl" style="text;strokeColor=none;fillColor=none;align=left;verticalAlign=middle;spacingLeft=4;spacingRight=4;overflow=hidden;points=[[0,0.5],[1,0.5]];portConstraint=eastwest;rotatable=0;whiteSpace=wrap;html=1;" vertex="1" parent="cJ3xzSQPgpJ4gWsIiwvy-104">
          <mxGeometry y="150" width="230" height="30" as="geometry" />
        </mxCell>
        <mxCell id="cJ3xzSQPgpJ4gWsIiwvy-110" value="[dbo].event_types" style="text;strokeColor=none;fillColor=none;align=left;verticalAlign=middle;spacingLeft=4;spacingRight=4;overflow=hidden;points=[[0,0.5],[1,0.5]];portConstraint=eastwest;rotatable=0;whiteSpace=wrap;html=1;" vertex="1" parent="cJ3xzSQPgpJ4gWsIiwvy-104">
          <mxGeometry y="180" width="230" height="30" as="geometry" />
        </mxCell>
        <mxCell id="cJ3xzSQPgpJ4gWsIiwvy-111" value="[school].faculty_events" style="text;strokeColor=none;fillColor=none;align=left;verticalAlign=middle;spacingLeft=4;spacingRight=4;overflow=hidden;points=[[0,0.5],[1,0.5]];portConstraint=eastwest;rotatable=0;whiteSpace=wrap;html=1;" vertex="1" parent="cJ3xzSQPgpJ4gWsIiwvy-104">
          <mxGeometry y="210" width="230" height="30" as="geometry" />
        </mxCell>
        <mxCell id="cJ3xzSQPgpJ4gWsIiwvy-112" value="[school].faculties" style="text;strokeColor=none;fillColor=none;align=left;verticalAlign=middle;spacingLeft=4;spacingRight=4;overflow=hidden;points=[[0,0.5],[1,0.5]];portConstraint=eastwest;rotatable=0;whiteSpace=wrap;html=1;" vertex="1" parent="cJ3xzSQPgpJ4gWsIiwvy-104">
          <mxGeometry y="240" width="230" height="30" as="geometry" />
        </mxCell>
        <mxCell id="cJ3xzSQPgpJ4gWsIiwvy-113" value="[school].event_bookings" style="text;strokeColor=none;fillColor=none;align=left;verticalAlign=middle;spacingLeft=4;spacingRight=4;overflow=hidden;points=[[0,0.5],[1,0.5]];portConstraint=eastwest;rotatable=0;whiteSpace=wrap;html=1;" vertex="1" parent="cJ3xzSQPgpJ4gWsIiwvy-104">
          <mxGeometry y="270" width="230" height="30" as="geometry" />
        </mxCell>
        <mxCell id="cJ3xzSQPgpJ4gWsIiwvy-114" value="[school].tb_events" style="text;strokeColor=none;fillColor=none;align=left;verticalAlign=middle;spacingLeft=4;spacingRight=4;overflow=hidden;points=[[0,0.5],[1,0.5]];portConstraint=eastwest;rotatable=0;whiteSpace=wrap;html=1;" vertex="1" parent="cJ3xzSQPgpJ4gWsIiwvy-104">
          <mxGeometry y="300" width="230" height="30" as="geometry" />
        </mxCell>
        <mxCell id="cJ3xzSQPgpJ4gWsIiwvy-115" value="[school].session_dates" style="text;strokeColor=none;fillColor=none;align=left;verticalAlign=middle;spacingLeft=4;spacingRight=4;overflow=hidden;points=[[0,0.5],[1,0.5]];portConstraint=eastwest;rotatable=0;whiteSpace=wrap;html=1;" vertex="1" parent="cJ3xzSQPgpJ4gWsIiwvy-104">
          <mxGeometry y="330" width="230" height="30" as="geometry" />
        </mxCell>
        <mxCell id="cJ3xzSQPgpJ4gWsIiwvy-116" value="[school].program_sessions" style="text;strokeColor=none;fillColor=none;align=left;verticalAlign=middle;spacingLeft=4;spacingRight=4;overflow=hidden;points=[[0,0.5],[1,0.5]];portConstraint=eastwest;rotatable=0;whiteSpace=wrap;html=1;" vertex="1" parent="cJ3xzSQPgpJ4gWsIiwvy-104">
          <mxGeometry y="360" width="230" height="30" as="geometry" />
        </mxCell>
        <mxCell id="cJ3xzSQPgpJ4gWsIiwvy-117" value="[dbo].academic_calendar" style="text;strokeColor=none;fillColor=none;align=left;verticalAlign=middle;spacingLeft=4;spacingRight=4;overflow=hidden;points=[[0,0.5],[1,0.5]];portConstraint=eastwest;rotatable=0;whiteSpace=wrap;html=1;" vertex="1" parent="cJ3xzSQPgpJ4gWsIiwvy-104">
          <mxGeometry y="390" width="230" height="30" as="geometry" />
        </mxCell>
        <mxCell id="cJ3xzSQPgpJ4gWsIiwvy-118" value="[school].session_calendar" style="text;strokeColor=none;fillColor=none;align=left;verticalAlign=middle;spacingLeft=4;spacingRight=4;overflow=hidden;points=[[0,0.5],[1,0.5]];portConstraint=eastwest;rotatable=0;whiteSpace=wrap;html=1;" vertex="1" parent="cJ3xzSQPgpJ4gWsIiwvy-104">
          <mxGeometry y="420" width="230" height="30" as="geometry" />
        </mxCell>
        <mxCell id="cJ3xzSQPgpJ4gWsIiwvy-119" value="[school].holidays" style="text;strokeColor=none;fillColor=none;align=left;verticalAlign=middle;spacingLeft=4;spacingRight=4;overflow=hidden;points=[[0,0.5],[1,0.5]];portConstraint=eastwest;rotatable=0;whiteSpace=wrap;html=1;" vertex="1" parent="cJ3xzSQPgpJ4gWsIiwvy-104">
          <mxGeometry y="450" width="230" height="30" as="geometry" />
        </mxCell>
        <mxCell id="cJ3xzSQPgpJ4gWsIiwvy-120" value="[school].timetable_list" style="text;strokeColor=none;fillColor=none;align=left;verticalAlign=middle;spacingLeft=4;spacingRight=4;overflow=hidden;points=[[0,0.5],[1,0.5]];portConstraint=eastwest;rotatable=0;whiteSpace=wrap;html=1;" vertex="1" parent="cJ3xzSQPgpJ4gWsIiwvy-104">
          <mxGeometry y="480" width="230" height="30" as="geometry" />
        </mxCell>
        <mxCell id="cJ3xzSQPgpJ4gWsIiwvy-121" value="[dbo].slot_interval_timings" style="text;strokeColor=none;fillColor=none;align=left;verticalAlign=middle;spacingLeft=4;spacingRight=4;overflow=hidden;points=[[0,0.5],[1,0.5]];portConstraint=eastwest;rotatable=0;whiteSpace=wrap;html=1;" vertex="1" parent="cJ3xzSQPgpJ4gWsIiwvy-104">
          <mxGeometry y="510" width="230" height="30" as="geometry" />
        </mxCell>
        <mxCell id="cJ3xzSQPgpJ4gWsIiwvy-122" value="" style="shape=link;html=1;rounded=0;" edge="1" parent="WIyWlLk6GJQsqaUBKTNV-1">
          <mxGeometry width="100" relative="1" as="geometry">
            <mxPoint y="520" as="sourcePoint" />
            <mxPoint x="1640" y="520" as="targetPoint" />
          </mxGeometry>
        </mxCell>
        <mxCell id="cJ3xzSQPgpJ4gWsIiwvy-123" value="&lt;h1 style=&quot;margin-top: 0px;&quot;&gt;SEND TO SAP FLOW&lt;/h1&gt;" style="text;html=1;whiteSpace=wrap;overflow=hidden;rounded=0;fillColor=#f5f5f5;fontColor=#333333;strokeColor=#666666;align=center;fontStyle=1" vertex="1" parent="WIyWlLk6GJQsqaUBKTNV-1">
          <mxGeometry x="580" y="-470" width="247" height="40" as="geometry" />
        </mxCell>
        <mxCell id="cJ3xzSQPgpJ4gWsIiwvy-124" value="&lt;h1 style=&quot;margin-top: 0px;&quot;&gt;EVENT GENERATION FLOW&lt;/h1&gt;" style="text;html=1;whiteSpace=wrap;overflow=hidden;rounded=0;fillColor=#f5f5f5;fontColor=#333333;strokeColor=#666666;align=center;" vertex="1" parent="WIyWlLk6GJQsqaUBKTNV-1">
          <mxGeometry x="491" y="-1160" width="336" height="40" as="geometry" />
        </mxCell>
        <mxCell id="cJ3xzSQPgpJ4gWsIiwvy-125" value="&lt;h1 style=&quot;margin-top: 0px;&quot;&gt;RESCHEDULING FLOW&lt;/h1&gt;" style="text;html=1;whiteSpace=wrap;overflow=hidden;rounded=0;fillColor=#f5f5f5;fontColor=#333333;strokeColor=#666666;align=center;" vertex="1" parent="WIyWlLk6GJQsqaUBKTNV-1">
          <mxGeometry x="520" y="530" width="307" height="40" as="geometry" />
        </mxCell>
        <mxCell id="cJ3xzSQPgpJ4gWsIiwvy-126" value="" style="rounded=0;whiteSpace=wrap;html=1;" vertex="1" parent="WIyWlLk6GJQsqaUBKTNV-1">
          <mxGeometry x="890" y="600" width="250" height="540" as="geometry" />
        </mxCell>
        <mxCell id="cJ3xzSQPgpJ4gWsIiwvy-127" value="tables (rescheduling)" style="swimlane;fontStyle=0;childLayout=stackLayout;horizontal=1;startSize=30;horizontalStack=0;resizeParent=1;resizeParentMax=0;resizeLast=0;collapsible=1;marginBottom=0;whiteSpace=wrap;html=1;" vertex="1" parent="WIyWlLk6GJQsqaUBKTNV-1">
          <mxGeometry x="900" y="600" width="230" height="60" as="geometry" />
        </mxCell>
        <mxCell id="cJ3xzSQPgpJ4gWsIiwvy-128" value="[school].timesheet" style="text;strokeColor=none;fillColor=none;align=left;verticalAlign=middle;spacingLeft=4;spacingRight=4;overflow=hidden;points=[[0,0.5],[1,0.5]];portConstraint=eastwest;rotatable=0;whiteSpace=wrap;html=1;" vertex="1" parent="cJ3xzSQPgpJ4gWsIiwvy-127">
          <mxGeometry y="30" width="230" height="30" as="geometry" />
        </mxCell>
        <mxCell id="cJ3xzSQPgpJ4gWsIiwvy-146" value="" style="shape=link;html=1;rounded=0;" edge="1" parent="WIyWlLk6GJQsqaUBKTNV-1">
          <mxGeometry width="100" relative="1" as="geometry">
            <mxPoint x="827" y="-1169" as="sourcePoint" />
            <mxPoint x="827" y="1290" as="targetPoint" />
          </mxGeometry>
        </mxCell>
        <mxCell id="cJ3xzSQPgpJ4gWsIiwvy-147" value="" style="shape=link;html=1;rounded=0;" edge="1" parent="WIyWlLk6GJQsqaUBKTNV-1">
          <mxGeometry width="100" relative="1" as="geometry">
            <mxPoint x="1200" y="-1169" as="sourcePoint" />
            <mxPoint x="1200" y="1290" as="targetPoint" />
          </mxGeometry>
        </mxCell>
        <mxCell id="cJ3xzSQPgpJ4gWsIiwvy-149" value="&lt;h1 style=&quot;margin-top: 0px;&quot;&gt;EVENT GENERATION TABLES&lt;/h1&gt;" style="text;html=1;whiteSpace=wrap;overflow=hidden;rounded=0;fillColor=#f5f5f5;fontColor=#333333;strokeColor=#666666;align=center;" vertex="1" parent="WIyWlLk6GJQsqaUBKTNV-1">
          <mxGeometry x="835" y="-1160" width="355" height="40" as="geometry" />
        </mxCell>
        <mxCell id="cJ3xzSQPgpJ4gWsIiwvy-150" value="&lt;h1 style=&quot;margin-top: 0px;&quot;&gt;SEND TO SAP TABLES&lt;/h1&gt;" style="text;html=1;whiteSpace=wrap;overflow=hidden;rounded=0;fillColor=#f5f5f5;fontColor=#333333;strokeColor=#666666;align=center;fontStyle=1" vertex="1" parent="WIyWlLk6GJQsqaUBKTNV-1">
          <mxGeometry x="835" y="-470" width="355" height="40" as="geometry" />
        </mxCell>
        <mxCell id="cJ3xzSQPgpJ4gWsIiwvy-151" value="&lt;h1 style=&quot;margin-top: 0px;&quot;&gt;RESCHEDULING TABLES&lt;/h1&gt;" style="text;html=1;whiteSpace=wrap;overflow=hidden;rounded=0;fillColor=#f5f5f5;fontColor=#333333;strokeColor=#666666;align=center;" vertex="1" parent="WIyWlLk6GJQsqaUBKTNV-1">
          <mxGeometry x="840" y="530" width="350" height="40" as="geometry" />
        </mxCell>
        <mxCell id="cJ3xzSQPgpJ4gWsIiwvy-152" value="&lt;h1 style=&quot;margin-top: 0px;&quot;&gt;ERD&lt;/h1&gt;" style="text;html=1;whiteSpace=wrap;overflow=hidden;rounded=0;fillColor=#f5f5f5;fontColor=#333333;strokeColor=#666666;align=center;" vertex="1" parent="WIyWlLk6GJQsqaUBKTNV-1">
          <mxGeometry x="1220" y="-1160" width="355" height="40" as="geometry" />
        </mxCell>
        <mxCell id="cJ3xzSQPgpJ4gWsIiwvy-153" value="USER GENERATE&lt;div&gt;EVENTS&lt;/div&gt;" style="text;align=center;verticalAlign=middle;spacingLeft=4;spacingRight=4;overflow=hidden;points=[[0,0.5],[1,0.5]];portConstraint=eastwest;rotatable=0;whiteSpace=wrap;html=1;fillColor=#f5f5f5;strokeColor=#666666;fontColor=#333333;" vertex="1" parent="WIyWlLk6GJQsqaUBKTNV-1">
          <mxGeometry x="100" y="-1160" width="120" height="50" as="geometry" />
        </mxCell>
        <mxCell id="cJ3xzSQPgpJ4gWsIiwvy-158" value="F&lt;div&gt;I&lt;/div&gt;&lt;div&gt;L&lt;/div&gt;&lt;div&gt;T&lt;/div&gt;&lt;div&gt;E&lt;/div&gt;&lt;div&gt;R&lt;/div&gt;" style="rounded=0;whiteSpace=wrap;html=1;" vertex="1" parent="WIyWlLk6GJQsqaUBKTNV-1">
          <mxGeometry x="30" y="-270" width="30" height="90" as="geometry" />
        </mxCell>
        <mxCell id="cJ3xzSQPgpJ4gWsIiwvy-159" value="F&lt;div&gt;I&lt;/div&gt;&lt;div&gt;L&lt;/div&gt;&lt;div&gt;T&lt;/div&gt;&lt;div&gt;E&lt;/div&gt;&lt;div&gt;R&lt;/div&gt;" style="rounded=0;whiteSpace=wrap;html=1;" vertex="1" parent="WIyWlLk6GJQsqaUBKTNV-1">
          <mxGeometry x="30" y="-130" width="30" height="90" as="geometry" />
        </mxCell>
        <mxCell id="cJ3xzSQPgpJ4gWsIiwvy-161" style="edgeStyle=orthogonalEdgeStyle;rounded=0;orthogonalLoop=1;jettySize=auto;html=1;exitX=0.5;exitY=1;exitDx=0;exitDy=0;" edge="1" parent="WIyWlLk6GJQsqaUBKTNV-1" source="cJ3xzSQPgpJ4gWsIiwvy-160">
          <mxGeometry relative="1" as="geometry">
            <mxPoint x="160" y="-860" as="targetPoint" />
          </mxGeometry>
        </mxCell>
        <mxCell id="cJ3xzSQPgpJ4gWsIiwvy-160" value="event_booking, tb_events &amp;amp; faculty_events&lt;br&gt;(weekly timetable)" style="rounded=0;whiteSpace=wrap;html=1;" vertex="1" parent="WIyWlLk6GJQsqaUBKTNV-1">
          <mxGeometry x="100" y="-1020" width="120" height="60" as="geometry" />
        </mxCell>
        <mxCell id="cJ3xzSQPgpJ4gWsIiwvy-171" style="edgeStyle=orthogonalEdgeStyle;rounded=0;orthogonalLoop=1;jettySize=auto;html=1;" edge="1" parent="WIyWlLk6GJQsqaUBKTNV-1" source="cJ3xzSQPgpJ4gWsIiwvy-162">
          <mxGeometry relative="1" as="geometry">
            <mxPoint x="160" y="-760" as="targetPoint" />
          </mxGeometry>
        </mxCell>
        <mxCell id="cJ3xzSQPgpJ4gWsIiwvy-162" value="while loop to genearte timetable for the whole session calendar with&amp;nbsp;&lt;div&gt;active = 0&amp;nbsp;&lt;/div&gt;" style="rounded=0;whiteSpace=wrap;html=1;" vertex="1" parent="WIyWlLk6GJQsqaUBKTNV-1">
          <mxGeometry x="60" y="-860" width="200" height="60" as="geometry" />
        </mxCell>
        <mxCell id="cJ3xzSQPgpJ4gWsIiwvy-170" style="edgeStyle=orthogonalEdgeStyle;rounded=0;orthogonalLoop=1;jettySize=auto;html=1;exitX=0.5;exitY=1;exitDx=0;exitDy=0;entryX=0.5;entryY=0;entryDx=0;entryDy=0;" edge="1" parent="WIyWlLk6GJQsqaUBKTNV-1" source="cJ3xzSQPgpJ4gWsIiwvy-169" target="cJ3xzSQPgpJ4gWsIiwvy-160">
          <mxGeometry relative="1" as="geometry" />
        </mxCell>
        <mxCell id="cJ3xzSQPgpJ4gWsIiwvy-169" value="INPUT JSON" style="rounded=0;whiteSpace=wrap;html=1;" vertex="1" parent="WIyWlLk6GJQsqaUBKTNV-1">
          <mxGeometry x="100" y="-1100" width="120" height="30" as="geometry" />
        </mxCell>
        <mxCell id="cJ3xzSQPgpJ4gWsIiwvy-180" style="edgeStyle=orthogonalEdgeStyle;rounded=0;orthogonalLoop=1;jettySize=auto;html=1;exitX=0.5;exitY=1;exitDx=0;exitDy=0;" edge="1" parent="WIyWlLk6GJQsqaUBKTNV-1" source="cJ3xzSQPgpJ4gWsIiwvy-172" target="cJ3xzSQPgpJ4gWsIiwvy-179">
          <mxGeometry relative="1" as="geometry" />
        </mxCell>
        <mxCell id="cJ3xzSQPgpJ4gWsIiwvy-172" value="update active = 1 top events_per_session between session_date/user input date batch wise" style="rounded=0;whiteSpace=wrap;html=1;" vertex="1" parent="WIyWlLk6GJQsqaUBKTNV-1">
          <mxGeometry x="65" y="-760" width="190" height="70" as="geometry" />
        </mxCell>
        <mxCell id="cJ3xzSQPgpJ4gWsIiwvy-175" style="edgeStyle=orthogonalEdgeStyle;rounded=0;orthogonalLoop=1;jettySize=auto;html=1;entryX=1;entryY=0.5;entryDx=0;entryDy=0;" edge="1" parent="WIyWlLk6GJQsqaUBKTNV-1" target="cJ3xzSQPgpJ4gWsIiwvy-153">
          <mxGeometry relative="1" as="geometry">
            <mxPoint x="280" y="-1140" as="targetPoint" />
            <mxPoint x="160" y="-940" as="sourcePoint" />
            <Array as="points">
              <mxPoint x="160" y="-910" />
              <mxPoint x="240" y="-910" />
              <mxPoint x="240" y="-1135" />
            </Array>
          </mxGeometry>
        </mxCell>
        <mxCell id="cJ3xzSQPgpJ4gWsIiwvy-174" value="validations" style="html=1;whiteSpace=wrap;aspect=fixed;shape=isoRectangle;" vertex="1" parent="WIyWlLk6GJQsqaUBKTNV-1">
          <mxGeometry x="110" y="-940" width="100" height="60" as="geometry" />
        </mxCell>
        <mxCell id="cJ3xzSQPgpJ4gWsIiwvy-177" value="FAIL" style="text;strokeColor=#b85450;fillColor=#f8cecc;align=left;verticalAlign=middle;spacingLeft=4;spacingRight=4;overflow=hidden;points=[[0,0.5],[1,0.5]];portConstraint=eastwest;rotatable=0;whiteSpace=wrap;html=1;" vertex="1" parent="WIyWlLk6GJQsqaUBKTNV-1">
          <mxGeometry x="240" y="-940" width="40" height="30" as="geometry" />
        </mxCell>
        <mxCell id="cJ3xzSQPgpJ4gWsIiwvy-181" style="edgeStyle=orthogonalEdgeStyle;rounded=0;orthogonalLoop=1;jettySize=auto;html=1;exitX=1;exitY=0.5;exitDx=0;exitDy=0;exitPerimeter=0;" edge="1" parent="WIyWlLk6GJQsqaUBKTNV-1" source="cJ3xzSQPgpJ4gWsIiwvy-179">
          <mxGeometry relative="1" as="geometry">
            <mxPoint x="240" y="-1140" as="targetPoint" />
            <mxPoint x="360" y="-640" as="sourcePoint" />
            <Array as="points">
              <mxPoint x="381" y="-640" />
              <mxPoint x="381" y="-1140" />
            </Array>
          </mxGeometry>
        </mxCell>
        <mxCell id="cJ3xzSQPgpJ4gWsIiwvy-179" value="Resource Collision" style="html=1;whiteSpace=wrap;aspect=fixed;shape=isoRectangle;" vertex="1" parent="WIyWlLk6GJQsqaUBKTNV-1">
          <mxGeometry x="110" y="-670" width="100" height="60" as="geometry" />
        </mxCell>
        <mxCell id="cJ3xzSQPgpJ4gWsIiwvy-182" value="FAIL" style="text;strokeColor=#b85450;fillColor=#f8cecc;align=left;verticalAlign=middle;spacingLeft=4;spacingRight=4;overflow=hidden;points=[[0,0.5],[1,0.5]];portConstraint=eastwest;rotatable=0;whiteSpace=wrap;html=1;" vertex="1" parent="WIyWlLk6GJQsqaUBKTNV-1">
          <mxGeometry x="215" y="-670" width="40" height="30" as="geometry" />
        </mxCell>
        <mxCell id="cJ3xzSQPgpJ4gWsIiwvy-184" style="edgeStyle=orthogonalEdgeStyle;rounded=0;orthogonalLoop=1;jettySize=auto;html=1;entryX=0.5;entryY=0;entryDx=0;entryDy=0;entryPerimeter=0;" edge="1" parent="WIyWlLk6GJQsqaUBKTNV-1" source="cJ3xzSQPgpJ4gWsIiwvy-179" target="cJ3xzSQPgpJ4gWsIiwvy-100">
          <mxGeometry relative="1" as="geometry" />
        </mxCell>
      </root>
    </mxGraphModel>
  </diagram>
</mxfile>
